<?xml version="1.0" encoding="utf-8"?>
<svg xmlns="http://www.w3.org/2000/svg">
<symbol id="brands_sprite">
</symbol>
<symbol id="econoiz" viewBox="0 0 21.216 5.292"><path d="M239.125-177.651h6.349v-1.038h-3.536l-1.459.03.933-.978 3.941-4.618v-.918h-6.183v1.038h3.506l1.338-.03-.947.978-3.942 4.618zm-2.858-8.966c.541 0 .902-.361.902-.903 0-.541-.36-.903-.902-.903s-.903.362-.903.903c0 .542.361.903.903.903zm.602 1.444h-1.204v7.522h1.204zm-7.116-.15c-2.121 0-3.64 1.474-3.64 3.911 0 2.437 1.519 3.911 3.64 3.911 2.12 0 3.64-1.474 3.64-3.911 0-2.437-1.52-3.911-3.64-3.911zm0 1.038c1.52 0 2.437 1.083 2.437 2.873 0 1.79-.918 2.873-2.437 2.873-1.52 0-2.437-1.083-2.437-2.873 0-1.79.917-2.873 2.437-2.873zm-8.771-1.038c-1.038 0-2 .376-2.527 1.323l-.076-1.173h-1.053v7.522h1.204v-4.002c0-1.925 1.233-2.617 2.332-2.617 1.038 0 1.85.556 1.85 2.226v4.393h1.204v-4.814c0-1.94-1.324-2.858-2.934-2.858zm-9.568 0c-2.121 0-3.64 1.474-3.64 3.911 0 2.437 1.519 3.911 3.64 3.911 2.121 0 3.64-1.474 3.64-3.911 0-2.437-1.519-3.911-3.64-3.911zm0 1.038c1.52 0 2.437 1.083 2.437 2.873 0 1.79-.918 2.873-2.437 2.873-1.52 0-2.437-1.083-2.437-2.873 0-1.79.918-2.873 2.437-2.873zm-8.425-1.038c-2.12 0-3.64 1.474-3.64 3.911 0 2.437 1.52 3.911 3.64 3.911 1.595 0 2.678-.827 3.19-2.211l-1.114-.391c-.225.993-.932 1.55-2.106 1.55-1.504 0-2.407-1.069-2.407-2.859s.903-2.858 2.407-2.858c1.038 0 1.685.526 2.001 1.489l1.143-.542c-.556-1.233-1.564-2-3.114-2zm-5.4 3.415c0-1.926-1.22-3.415-3.325-3.415-2.091 0-3.596 1.474-3.596 3.911 0 2.437 1.52 3.911 3.671 3.911 1.46 0 2.527-.646 3.099-1.67l-.948-.556c-.421.722-1.083 1.173-2.181 1.173-1.414 0-2.332-.932-2.452-2.512h5.671c.03-.21.06-.496.06-.842zm-3.355-2.362c1.248 0 2.106.767 2.151 2.136h-4.483c.21-1.354 1.068-2.136 2.332-2.136zm-15.68-7.79c-.016 0-.031.003-.047.003-.135.016-.273.03-.407.042-.11.013-.218.019-.324.051-.128.039-.131.093-.112.192.036.013.074.033.119.049.093.019.189.035.285.028.019 0 .035.007.054.007.035.003.068.003.103.003.035-.003.073-.009.109-.009.208 0 .42-.003.627 0 .074.003.15.007.224.02.145.025.289.057.433.086.086.02.173.045.26.055.115.016.233.019.351.025.058.003.119 0 .177.01a21.322 21.322 0 0 1 .9.179c.16.044.314.099.467.15.199.067.397.14.605.18.17.031.337.083.487.17.093.053.19.108.285.16.07.038.132.086.196.134.05.038.108.073.166.102.112.054.228.106.336.163.17.087.33.186.468.317.115.112.24.218.352.334.135.137.266.285.397.429.058.064.113.134.16.205.132.195.26.39.382.589a2.4 2.4 0 0 0 .378.464l.076.077a.94.94 0 0 1 .196.301c.051.125.1.253.147.381.035.103.08.199.138.289.038.054.067.118.102.176.016.025.032.054.055.077.112.121.195.262.253.416.054.153.102.304.134.464.03.16.074.314.096.474.016.125.039.25.068.372.019.073.05.144.064.22.022.129.038.254.041.382.01.26.013.522.016.784 0 .074-.013.145-.009.218.007.192.016.381.026.574.004.044.007.09.013.134.009.1.029.195.035.292.004.073-.004.147-.009.217-.013.106-.038.208-.041.31-.013.35-.016.702-.03 1.051a2.935 2.935 0 0 1-.067.52c-.073.32-.17.63-.288.937a.351.351 0 0 1-.048.084c-.064.093-.128.182-.189.275-.016.023-.019.055-.022.084a.109.109 0 0 0 .06.118.128.128 0 0 0 .135-.013.24.24 0 0 0 .058-.057c.032-.039.057-.087.093-.125.08-.087.144-.18.198-.279.064-.115.128-.228.186-.343a2.41 2.41 0 0 0 .282-.986 8.59 8.59 0 0 1 .079-.801c.026-.16.055-.317.09-.474.03-.134.07-.266.074-.406.004-.068.009-.132.016-.2.01-.134.029-.268.032-.406.004-.253-.004-.506-.006-.759 0-.013-.004-.029 0-.042.022-.109.004-.214-.009-.32a3.379 3.379 0 0 1-.026-.358c0-.244.016-.487-.022-.73-.022-.132-.042-.26-.09-.385a9.824 9.824 0 0 1-.294-.849 28.31 28.31 0 0 0-.23-.743.54.54 0 0 0-.055-.115c-.247-.397-.497-.794-.747-1.191-.096-.15-.189-.301-.313-.43-.007-.006-.013-.016-.02-.025-.057-.106-.14-.196-.217-.288a8.172 8.172 0 0 0-.663-.67c-.106-.099-.208-.201-.314-.304-.048-.048-.096-.102-.15-.147-.04-.032-.087-.052-.122-.087a1.406 1.406 0 0 0-.311-.22c-.211-.12-.426-.231-.644-.344a29.19 29.19 0 0 0-.708-.355 2.887 2.887 0 0 1-.237-.135c-.099-.06-.205-.115-.307-.17a.119.119 0 0 0-.045-.015c-.067-.016-.131-.032-.199-.045-.108-.022-.22-.035-.326-.064a5.933 5.933 0 0 1-.407-.128c-.22-.084-.452-.132-.679-.199a.98.98 0 0 0-.32-.06.36.36 0 0 1-.173-.026.286.286 0 0 0-.067-.016c-.15-.016-.305-.029-.455-.042-.058-.003-.119-.013-.176-.013zm-1.96.317a.727.727 0 0 0-.307.035c-.144.058-.291.106-.432.167-.18.077-.356.163-.532.244-.118.054-.243.09-.346.172-.032.026-.067.048-.1.07a.076.076 0 0 1-.028.02l-.336.15c-.064.03-.131.055-.192.09a4.216 4.216 0 0 0-.478.314c-.17.128-.352.237-.515.378-.11.096-.234.173-.352.256a.949.949 0 0 0-.221.202l-.337.423c-.05.06-.099.125-.153.182-.212.212-.423.42-.638.628a1.36 1.36 0 0 0-.266.352c-.124.234-.25.471-.397.692-.025.042-.057.08-.077.122a1.629 1.629 0 0 1-.163.269.748.748 0 0 0-.128.275 1.811 1.811 0 0 0-.048.372 4.414 4.414 0 0 1-.051.455c-.02.102-.036.205-.074.304-.048.128-.1.26-.125.394-.029.16-.06.32-.115.474-.074.208-.147.413-.17.63-.013.135-.032.266-.048.4-.007.071-.009.142-.016.212-.007.096-.016.196-.022.292l-.02.47a1.865 1.865 0 0 0 .04.66c.036.135.075.266.094.404l.051.3c.013.09.026.18.042.27.02.112.042.22.064.333.042.195.093.394.186.573.074.144.135.292.186.445.038.119.086.234.154.34.032.048.057.1.083.15.06.122.115.247.147.381.029.116.183.225.301.218a.126.126 0 0 0 .122-.109.259.259 0 0 0-.013-.147 1.445 1.445 0 0 0-.138-.272 1.81 1.81 0 0 1-.23-.506 3.954 3.954 0 0 1-.074-.34c-.02-.13-.06-.256-.09-.384-.035-.163-.057-.327-.099-.487-.074-.288-.077-.58-.064-.874.003-.038.016-.074.01-.11a3.98 3.98 0 0 1-.042-.476 2.916 2.916 0 0 1 .032-.647c.025-.128.025-.256.025-.388 0-.022 0-.044.004-.067.026-.125.026-.253.026-.38 0-.107.007-.21.013-.315.007-.09.019-.176.029-.266.012-.115.019-.233.032-.352a.954.954 0 0 1 .048-.227 3.46 3.46 0 0 0 .125-.474c.025-.135.06-.266.118-.391a1.59 1.59 0 0 0 .087-.272c.041-.19.092-.378.163-.56.054-.145.112-.286.192-.42.144-.244.282-.487.452-.715.131-.176.269-.345.41-.512.134-.163.278-.32.419-.477.07-.08.148-.157.221-.234.048-.051.093-.102.138-.154.083-.099.163-.198.25-.291.134-.144.278-.276.438-.39.164-.12.32-.244.48-.363.03-.019.058-.038.087-.054l.657-.375c.06-.035.125-.067.176-.115.08-.074.163-.144.247-.215.08-.07.17-.121.262-.166.15-.074.298-.16.461-.202.02-.003.042-.016.061-.025.087-.042.17-.087.256-.125a.286.286 0 0 0 .113-.084c.025-.029.035-.06.022-.099-.016-.038-.048-.054-.087-.058zm2.162 1.05c-.105.004-.208 0-.314.01-.128.012-.259 0-.387.007a1.507 1.507 0 0 0-.554.13l-.26.126a4.315 4.315 0 0 1-.582.227c-.135.042-.276.07-.404.125a6.535 6.535 0 0 0-.519.253c-.144.077-.278.167-.42.243-.198.106-.39.231-.573.366-.086.064-.16.14-.243.208-.154.128-.307.26-.487.352a1.766 1.766 0 0 0-.528.445c-.138.167-.27.343-.407.513a3.348 3.348 0 0 0-.442.653c-.096.199-.211.388-.279.599l-.134.42c-.067.204-.131.41-.17.62-.025.135-.041.27-.064.404-.019.128-.045.26-.067.388a4.293 4.293 0 0 1-.199.72c-.035.103-.054.215-.073.324-.013.07-.01.144-.016.218l-.023.34c-.009.162.023.323.032.483.004.057.01.118.016.176.02.134.045.272.058.41.02.176.045.349.096.515.054.186.112.369.163.554.045.177.087.353.129.529.057.23.118.461.166.695.042.192.115.368.218.531.086.138.189.263.288.391a.78.78 0 0 0 .112.119 2.8 2.8 0 0 1 .365.397c.144.182.26.384.372.59.032.063.07.124.115.182a.593.593 0 0 0 .176.157c.128.08.256.166.384.246.135.087.27.176.413.25.18.093.366.173.548.256.138.064.276.119.423.154.102.025.205.048.304.077a.84.84 0 0 0 .27.038c.006-.007.012-.013.038-.009.086-.045.083-.118.045-.192a.157.157 0 0 0-.058-.054.61.61 0 0 0-.125-.055c-.131-.041-.263-.077-.387-.14-.16-.08-.324-.151-.484-.235a1.489 1.489 0 0 1-.48-.374c-.01-.007-.017-.016-.026-.023a1.885 1.885 0 0 1-.292-.237c-.105-.096-.214-.189-.317-.291a2.45 2.45 0 0 1-.46-.622c-.08-.16-.155-.32-.228-.48-.045-.093-.087-.189-.157-.269a.571.571 0 0 1-.038-.054c-.093-.157-.19-.317-.28-.477a1.598 1.598 0 0 1-.188-.522 6.134 6.134 0 0 0-.045-.24l-.064-.32a23.55 23.55 0 0 0-.09-.462c-.013-.067-.035-.135-.045-.205-.029-.202-.048-.4-.073-.602a5.062 5.062 0 0 1-.036-.538c0-.035.004-.068.004-.103-.009-.282-.019-.563.007-.845.016-.173.061-.336.093-.503.032-.173.087-.34.103-.519.016-.182.029-.365.022-.55-.004-.04.007-.077.013-.116.026-.131.058-.26.083-.39.039-.196.084-.391.16-.577.052-.131.11-.26.167-.388.112-.256.237-.5.41-.72a2.52 2.52 0 0 1 .538-.522 6.25 6.25 0 0 0 .557-.442c.192-.173.378-.35.567-.525.093-.087.186-.173.298-.238.205-.115.41-.233.615-.349.176-.099.365-.172.554-.24.234-.083.464-.173.708-.214a11.75 11.75 0 0 1 .977-.112c.13-.01.262-.02.393-.016.25.009.503.025.756.038.058.003.112.007.17.013.103.009.208.016.31.032.225.038.452.08.676.122.16.032.318.067.465.134.147.064.3.1.458.119.035.003.07 0 .102.006.147.032.289.08.423.147.141.07.285.138.43.205.021.013.04.026.063.038.234.148.449.317.653.503.08.074.157.147.221.234.055.074.116.144.173.218.068.083.135.17.202.256.077.096.157.186.26.253.217.147.41.323.573.532.08.102.166.204.214.33.064.17.151.33.24.486.033.055.062.11.087.164.144.304.25.624.343.948.041.134.08.269.144.393.077.145.128.301.17.458.029.1.029.2.009.298a1.406 1.406 0 0 0-.004.564c.025.122.06.24.09.362.025.112.05.227.073.34.02.086.026.175.042.262a1 1 0 0 1 .016.218c-.007.128-.01.26-.016.387-.007.1-.01.199-.016.295-.013.176-.068.349-.084.528-.009.084-.028.17-.05.253-.036.128-.065.26-.11.385-.076.224-.163.445-.243.669-.064.18-.109.368-.18.548-.099.243-.21.477-.323.714-.035.067-.08.131-.128.192-.128.16-.26.317-.387.477-.125.154-.247.31-.366.468-.025.035-.041.077-.057.115a.069.069 0 0 0-.007.045c.007.07.08.096.144.051a.989.989 0 0 0 .192-.173c.102-.125.208-.243.317-.359.058-.064.125-.118.189-.176.112-.099.227-.192.317-.31.09-.119.192-.228.279-.346.096-.131.189-.27.246-.423.045-.122.087-.243.128-.365.052-.144.093-.291.148-.432.105-.27.211-.538.298-.817.07-.23.112-.461.128-.701l.029-.34c.009-.128.019-.26.025-.387 0-.061.007-.119.023-.177.022-.09.048-.179.057-.272a1.46 1.46 0 0 0-.064-.586c-.06-.198-.07-.403-.086-.605-.013-.16.016-.324-.01-.484-.022-.128-.038-.253-.089-.375a2.957 2.957 0 0 1-.061-.179c-.026-.08-.045-.163-.07-.246a.78.78 0 0 1-.042-.212.845.845 0 0 0-.022-.163 8.332 8.332 0 0 0-.11-.426c-.015-.061-.035-.119-.054-.176-.048-.135-.099-.27-.147-.404a.743.743 0 0 0-.035-.08c-.128-.256-.256-.515-.388-.772a1.363 1.363 0 0 0-.083-.134 9.712 9.712 0 0 1-.16-.221c-.023-.032-.039-.07-.064-.103a21.63 21.63 0 0 0-.391-.525.993.993 0 0 0-.15-.157c-.058-.045-.122-.08-.18-.125-.08-.06-.16-.121-.237-.185a.363.363 0 0 1-.115-.16.822.822 0 0 0-.244-.33 6.023 6.023 0 0 0-.592-.44c-.167-.108-.33-.22-.5-.323a3.96 3.96 0 0 0-.646-.3 2.391 2.391 0 0 0-.295-.084c-.074-.016-.15-.022-.228-.035-.14-.023-.281-.048-.422-.07-.218-.036-.439-.068-.657-.106-.112-.023-.224-.055-.336-.084-.192-.048-.384-.096-.583-.1a21.017 21.017 0 0 0-.833-.002zm-.893 1.416a1.148 1.148 0 0 0-.186.016c-.147.026-.288.08-.42.154a2.53 2.53 0 0 1-.281.138c-.167.06-.337.115-.503.173-.042.012-.08.032-.119.05-.102.055-.201.116-.3.174a.67.67 0 0 0-.126.083.493.493 0 0 1-.214.112.662.662 0 0 0-.224.11l-.122.086c-.048.035-.1.07-.147.108a4.15 4.15 0 0 0-.18.157 1.421 1.421 0 0 0-.23.25.463.463 0 0 0-.058.11c-.022.063.051.12.103.098.016-.007.032-.009.045-.019.076-.051.153-.1.224-.154.121-.099.24-.198.384-.269.09-.041.18-.073.275-.096.055-.013.106-.025.157-.045.154-.064.308-.13.462-.198.115-.051.224-.11.339-.157.131-.051.263-.106.397-.14.183-.049.368-.081.554-.116a.515.515 0 0 1 .141-.01c.119.014.237.023.352.042.125.02.247.007.372-.003.109-.007.218-.016.327-.025.092-.01.185-.016.278-.026.112-.009.224-.02.333.009.1.026.199.048.298.074.17.045.34.096.503.166.163.068.33.138.506.176.038.01.074.032.109.052.035.022.067.048.1.073.08.061.16.116.255.154.061.022.119.048.173.08l.532.307c.1.058.192.122.269.209.016.019.035.032.051.048.15.137.301.275.449.413a1.1 1.1 0 0 1 .237.34.619.619 0 0 0 .086.137c.051.06.112.118.17.176.067.067.134.135.205.202.054.051.105.106.166.15.212.157.372.353.48.593.04.077.068.16.097.24.054.157.112.31.154.47.057.215.083.436.096.66.007.09.022.18.028.27.01.09.007.176.016.266.013.137.032.275.045.413l.039.42c.007.092.016.185.02.278a2.53 2.53 0 0 1-.008.326c-.007.09-.029.18-.042.27a1.7 1.7 0 0 1-.102.416c-.013.038-.026.074-.032.112l-.045.323a2 2 0 0 1-.035.208c-.035.141-.077.285-.115.426-.055.212-.135.41-.256.596-.068.103-.119.215-.18.32-.057.103-.109.205-.17.305-.073.121-.153.243-.23.362-.026.035-.051.073-.084.105-.086.083-.179.164-.265.247-.084.083-.167.163-.24.253-.132.157-.26.317-.388.477-.029.035-.058.07-.093.1a2.1 2.1 0 0 1-.41.278c-.14.074-.276.16-.413.237a1.33 1.33 0 0 1-.32.134c-.125.036-.257.052-.378.106-.01.003-.023.003-.032.006a4.98 4.98 0 0 1-.484.109 16.1 16.1 0 0 0-.416.07c-.077.017-.157.026-.224.058a2.153 2.153 0 0 1-.414.135c-.09.022-.179.035-.269.035-.208.003-.42-.006-.627-.01l-.02-.002c-.137-.013-.275-.029-.413-.039-.131-.012-.262-.015-.394-.028a.234.234 0 0 0-.195.06.222.222 0 0 0 .029.19.653.653 0 0 0 .243.121c.068.02.135.035.202.06.109.04.218.088.333.113.189.045.381.07.573.074.199.003.398.003.596 0 .157 0 .314-.01.47-.013h.049c.013 0 .022-.003.035-.003.157-.016.317-.038.474-.051.087-.01.167-.026.247-.052.067-.022.134-.041.202-.06.14-.039.285-.068.42-.135.114-.058.236-.106.351-.163.119-.058.24-.112.35-.186.13-.09.272-.16.416-.218a.896.896 0 0 0 .246-.157c.218-.185.423-.387.622-.595.06-.068.118-.141.173-.212l.275-.365c.083-.106.17-.208.23-.33.033-.064.071-.121.11-.182.083-.132.172-.256.25-.39.092-.164.195-.325.304-.478.077-.11.166-.211.246-.317a.383.383 0 0 0 .061-.112c.058-.16.1-.327.131-.493.052-.273.106-.545.16-.817.03-.141.068-.279.074-.423.007-.14.013-.282.061-.416a.389.389 0 0 0 .023-.106l.048-.426a.838.838 0 0 0-.016-.298 6.854 6.854 0 0 0-.106-.422c-.022-.09-.058-.18-.074-.27-.035-.198-.06-.4-.096-.598-.035-.209-.077-.42-.118-.628-.042-.208-.122-.407-.192-.608a3.263 3.263 0 0 0-.314-.647 2.772 2.772 0 0 0-.394-.471.708.708 0 0 1-.103-.135 1.161 1.161 0 0 0-.288-.368c-.122-.093-.218-.205-.327-.308-.163-.156-.336-.307-.502-.46a1.07 1.07 0 0 1-.209-.24 1.142 1.142 0 0 0-.16-.206.652.652 0 0 1-.05-.054 1.335 1.335 0 0 0-.283-.256c-.246-.177-.535-.26-.81-.369-.007-.003-.013 0-.02-.003l-.201-.054a3.518 3.518 0 0 0-.176-.055c-.051-.016-.106-.028-.157-.041-.029-.007-.058-.022-.09-.026a1.192 1.192 0 0 1-.371-.128.744.744 0 0 0-.247-.08 5.284 5.284 0 0 0-.599-.048c-.083-.003-.17.003-.253.003-.054 0-.109 0-.163-.003-.17-.009-.34-.022-.51-.032-.137-.009-.271-.019-.41-.022-.062-.001-.125-.004-.188-.003zm.45 1.312c-.028 0-.055 0-.082.002-.109.007-.22.003-.333.009-.112.007-.227.016-.34.022-.064.003-.124 0-.185.003a1.417 1.417 0 0 0-.23.022c-.18.042-.35.112-.5.224a1.57 1.57 0 0 1-.503.263 6.24 6.24 0 0 0-.88.34c-.09.045-.183.086-.257.157-.131.121-.256.243-.381.371-.083.087-.157.19-.244.276a3.33 3.33 0 0 0-.48.618 1.72 1.72 0 0 0-.195.57c-.026.137-.039.282-.061.422-.032.205-.042.414-.052.619-.007.105-.009.208-.016.313-.007.084-.019.167-.028.25a1.271 1.271 0 0 0-.01.087c-.003.067-.022.137-.008.201.028.164.083.32.156.474a2.2 2.2 0 0 1 .087.032.107.107 0 0 0 .032-.045.316.316 0 0 0 .051-.16c.013-.14.016-.281-.004-.422a.585.585 0 0 1 .025-.314.15.15 0 0 0 .013-.039c.058-.262.122-.525.176-.787.03-.145.065-.285.142-.41a2.82 2.82 0 0 0 .188-.413 2.32 2.32 0 0 1 .353-.603c.14-.17.288-.333.458-.477.057-.051.118-.1.176-.15.15-.135.304-.26.503-.317.009-.003.016-.01.025-.013l.56-.292c.12-.06.235-.128.356-.185.289-.138.602-.196.91-.273.105-.025.211-.029.317-.048.192-.035.387-.022.58-.016.09.003.176.013.265.023.061.007.122.013.183.022.042.003.08.013.122.016a.072.072 0 0 0 .073-.048c.013-.032 0-.06-.025-.08-.039-.029-.077-.058-.122-.074-.087-.032-.176-.05-.266-.076a2.269 2.269 0 0 0-.55-.095zm1.91.387a.25.25 0 0 0-.083.028.095.095 0 0 0-.058.105c.007.045.039.067.077.077.007 0 .016 0 .026.003.057.02.118.035.173.06.125.055.25.11.371.17.077.039.157.077.224.129.061.045.106.112.16.166.049.048.097.106.151.148.119.092.243.179.368.259.176.115.33.25.468.407.1.115.189.237.26.374.08.154.156.305.236.455.064.122.119.247.154.378a2 2 0 0 0 .096.276c.026.064.051.13.07.198.033.106.058.211.08.317.02.096.049.19.049.288 0 .122.004.247.006.369a.23.23 0 0 1-.004.073c-.01.112-.026.221-.007.333a.76.76 0 0 1 0 .27c-.013.063-.016.13-.026.195-.016.109-.029.22-.048.33-.019.112-.038.227-.064.339a1.17 1.17 0 0 1-.083.279c-.064.131-.135.26-.234.368a2.41 2.41 0 0 0-.144.173.587.587 0 0 1-.192.163.743.743 0 0 0-.202.16.935.935 0 0 1-.1.097c-.095.073-.17.166-.252.256-.084.093-.167.185-.26.262-.096.08-.208.144-.314.215-.064.045-.131.083-.185.138-.129.125-.292.173-.452.227-.09.032-.189.038-.285.058-.115.022-.23.041-.346.067-.06.016-.115.042-.176.055-.109.022-.22.044-.333.064-.125.019-.25.041-.375.028-.093-.009-.186-.003-.278 0a1.83 1.83 0 0 1-.574-.076 1.03 1.03 0 0 0-.342-.048.661.661 0 0 1-.234-.045c-.045-.013-.09-.032-.135-.042-.07-.016-.14-.016-.192.048.03.07.083.115.131.167a.553.553 0 0 0 .382.17c.195.008.384.05.563.118.157.06.32.08.487.077.032-.003.06-.006.09-.006h.397c.051-.003.102-.003.15-.013.144-.026.289-.058.433-.087.109-.019.211-.054.323-.048a.476.476 0 0 0 .122-.019c.096-.02.192-.045.291-.06a2.01 2.01 0 0 0 .362-.094.462.462 0 0 0 .074-.032c.077-.038.15-.086.23-.118a.968.968 0 0 0 .32-.224 1.47 1.47 0 0 1 .315-.247c.163-.093.32-.195.448-.34.045-.054.105-.099.157-.147.045.026.05.055.067.116a.287.287 0 0 1-.038.176c-.023.035-.048.064-.07.1-.09.137-.18.268-.26.409a1.17 1.17 0 0 1-.228.272c-.086.08-.182.147-.278.218-.096.067-.19.134-.292.189-.102.058-.217.1-.326.15-.1.045-.196.093-.295.141a.486.486 0 0 1-.112.045c-.074.02-.15.032-.224.051-.106.026-.212.058-.317.077a.79.79 0 0 0-.27.093c-.028.02-.06.029-.092.042a4.2 4.2 0 0 1-.586.195 1.015 1.015 0 0 1-.324.035c-.125-.009-.25-.003-.371-.041-.119-.039-.234-.087-.359-.106-.086-.013-.17-.038-.256-.041-.144-.007-.288 0-.43-.03-.054-.008-.108-.015-.16-.031-.21-.07-.422-.141-.63-.215a3.164 3.164 0 0 1-.324-.138 1.185 1.185 0 0 1-.217-.137 1.543 1.543 0 0 0-.19-.132 1.016 1.016 0 0 1-.086-.057c-.096-.074-.189-.148-.285-.221a.222.222 0 0 1-.058-.064c-.096-.154-.189-.311-.285-.465a.066.066 0 0 0-.016-.022c-.08-.087-.16-.17-.233-.26-.08-.092-.16-.182-.225-.284a3.97 3.97 0 0 1-.269-.503c-.09-.212-.173-.426-.198-.657-.02-.202-.128-.365-.218-.538a.1.1 0 0 0-.112-.048.106.106 0 0 0-.08.1c-.004.019.004.04.007.06.004.026.016.048.016.074 0 .06.019.118.041.176.02.048.039.1.055.147.042.128.083.253.074.391-.004.026.004.054.007.08.012.1.022.199.035.298.013.096.016.192.054.285.074.186.129.381.244.55.013.02.022.042.032.062.054.102.112.201.166.304.052.093.11.186.15.282a.925.925 0 0 0 .205.307c.087.102.18.198.308.253a.11.11 0 0 1 .032.032c.128.176.304.304.483.426.119.08.257.134.388.198.019.01.042.016.064.023.102.025.205.05.304.092.083.032.167.055.253.08.167.049.336.077.51.074.028 0 .06.01.086.02.118.044.246.057.371.073.096.013.196.02.292.036.16.022.317.044.48.044.23 0 .461.006.692.003.07-.003.14-.012.208-.028.128-.032.25-.077.378-.11.15-.038.304-.07.451-.121.084-.029.17-.051.257-.07a1 1 0 0 0 .25-.084c.166-.086.342-.147.522-.195a1.53 1.53 0 0 0 .506-.211c.118-.084.237-.16.352-.247.173-.131.323-.291.451-.47a6.14 6.14 0 0 0 .16-.238c.033-.051.065-.1.094-.15.137-.253.24-.52.32-.798.041-.147.093-.291.14-.439.058-.172.106-.349.132-.528.016-.122.035-.24.048-.359a1.58 1.58 0 0 1 .07-.346 1.38 1.38 0 0 0 .084-.336c.013-.15.029-.3-.01-.448-.003-.016-.003-.032-.003-.048.013-.15-.042-.292-.048-.439-.004-.086-.026-.17-.032-.256-.003-.061.007-.122.007-.183 0-.096.013-.195-.004-.291a1.631 1.631 0 0 0-.15-.452 3.101 3.101 0 0 1-.244-.64 1.342 1.342 0 0 0-.154-.378c-.051-.087-.102-.173-.118-.272-.004-.02-.013-.036-.02-.052a2.047 2.047 0 0 0-.441-.611c-.103-.096-.209-.186-.311-.279-.138-.121-.276-.247-.416-.365a2.901 2.901 0 0 0-.28-.195c-.044-.03-.098-.042-.146-.068a3.689 3.689 0 0 0-.516-.227c-.016-.007-.032-.009-.045-.02-.112-.08-.243-.099-.371-.124a.295.295 0 0 0-.09-.001zm-1.57.457c-.191 0-.37.041-.544.121-.05.023-.102.051-.166.045-.013-.003-.029.007-.045.01a2.72 2.72 0 0 0-.577.214c-.099.05-.201.099-.313.125-.154.035-.305.073-.436.166a.166.166 0 0 1-.054.026c-.052.019-.1.035-.148.057a1.232 1.232 0 0 0-.406.257c-.128.13-.253.268-.381.4-.1.102-.164.227-.238.349-.035.06-.064.125-.086.192a4.378 4.378 0 0 0-.119.384c-.032.125-.092.24-.096.375-.003.138-.05.266-.099.394a1.641 1.641 0 0 0-.122.541c-.004.212-.012.423.01.634.022.177.054.353.118.522a.438.438 0 0 1 .032.205c-.004.052.004.103.009.15.009.09.022.18.035.27.016.102.023.205.061.3a1.1 1.1 0 0 0 .208.318c.051.06.096.122.135.189.08.147.182.275.298.397.121.131.275.221.406.343.087.08.183.147.256.243.061.08.142.135.231.18a.26.26 0 0 0 .244.002c.022-.112-.02-.188-.093-.256-.093-.09-.209-.147-.311-.22-.048-.036-.1-.071-.131-.12a3.609 3.609 0 0 1-.186-.3c-.067-.116-.125-.237-.215-.333a1.622 1.622 0 0 1-.224-.324 1.33 1.33 0 0 1-.147-.422c-.01-.058-.004-.12-.016-.177-.032-.15-.068-.3-.103-.451a2.823 2.823 0 0 1-.032-.16c-.019-.11-.022-.218-.051-.324a.548.548 0 0 1-.016-.147 3.972 3.972 0 0 1 0-.362c.004-.103.013-.208.035-.31.048-.219.106-.43.15-.644a.947.947 0 0 1 .148-.34c.058-.087.112-.18.167-.272.07-.122.134-.247.211-.365.131-.205.275-.4.464-.554.093-.074.183-.154.301-.192.103-.032.208-.058.314-.087.026-.007.051-.01.074-.02.26-.108.522-.217.775-.345.02-.01.038-.013.057-.02.112-.028.225-.057.337-.09.099-.025.198-.044.3-.044.074 0 .151-.003.225 0 .163.007.327.016.49.029a.655.655 0 0 1 .218.054c.195.09.394.164.589.25.211.093.426.18.59.355.003 0 .003.003.005.003.074.064.151.125.218.196.135.134.263.275.394.41.176.176.288.39.375.618.026.067.048.138.08.202.045.09.096.179.144.269a.74.74 0 0 1 .106.355c0 .055.012.109.025.16.032.122.08.237.074.365-.004.058-.004.113-.007.17-.007.112 0 .224-.02.333-.028.167-.073.33-.111.497a.542.542 0 0 0-.007.224c.013.07.086.093.134.041a.303.303 0 0 0 .055-.086c.019-.051.032-.11.045-.164.019-.092.057-.179.102-.265a.723.723 0 0 0 .074-.212.996.996 0 0 0 0-.278.704.704 0 0 1 .004-.19c.004-.025.012-.054.012-.08 0-.105.007-.214 0-.32a1.145 1.145 0 0 0-.096-.422.286.286 0 0 1-.028-.125c-.004-.157-.023-.311-.119-.442a.706.706 0 0 1-.096-.164c-.08-.211-.189-.41-.295-.611a2.27 2.27 0 0 0-.439-.58.659.659 0 0 0-.224-.15.971.971 0 0 1-.378-.244 1.75 1.75 0 0 0-.339-.275 2.363 2.363 0 0 0-.657-.276c-.073-.019-.147-.029-.22-.041-.11-.02-.218-.032-.327-.055-.074-.016-.144-.041-.218-.054a2.385 2.385 0 0 0-.4-.029zm.273 1.345a.841.841 0 0 0-.343.067c-.08.032-.16.067-.243.08-.125.023-.253.023-.381.032-.032.003-.061.003-.09.006a2.3 2.3 0 0 0-.384.112 1.38 1.38 0 0 0-.605.449c-.036.041-.064.083-.1.121a1.112 1.112 0 0 0-.256.461 6.763 6.763 0 0 1-.106.337.963.963 0 0 0-.05.314c.003.15-.04.291-.052.438a1.49 1.49 0 0 1-.106.42.564.564 0 0 0-.013.355c.032.125.08.244.145.353.035.057.057.121.08.186.028.086.067.166.105.25.061.127.157.227.24.339a.512.512 0 0 0 .225.17c.083.032.17.063.253.096a.804.804 0 0 1 .099.044c.022.01.045.023.067.032.119.048.24.093.362.138.045.02.087.038.122.074.08.08.182.119.295.144.14.032.285.022.426.038.019 0 .035-.003.054-.003.058-.003.118-.009.176-.009h.327c.038 0 .07-.012.105-.025.093-.038.16-.109.234-.173a.363.363 0 0 1 .07-.051c.148-.077.295-.154.44-.234.044-.026.092-.051.13-.087.174-.16.33-.326.35-.58a.618.618 0 0 0 0-.121c-.007-.06-.03-.122-.03-.183 0-.128.014-.256.033-.38a.99.99 0 0 0 .013-.26c-.007-.103-.03-.205-.048-.308a.656.656 0 0 0-.106-.278 1.75 1.75 0 0 1-.14-.234c-.071-.138-.132-.279-.222-.407a.507.507 0 0 0-.243-.189c-.093-.035-.183-.077-.276-.115a.55.55 0 0 0-.224-.054 8.18 8.18 0 0 1-.381-.01 1.56 1.56 0 0 0-.407.042c-.185.038-.333.141-.477.26a2.353 2.353 0 0 0-.15.211.854.854 0 0 1-.141.192.455.455 0 0 0-.061.08c-.144.205-.128.43-.074.657.02.083.045.16.074.24.054.16.144.294.294.378.129.073.266.134.404.195a.425.425 0 0 1 .125.09c.057.06.125.112.218.109.038 0 .08.003.121-.003.049-.007.1-.013.145-.032a.86.86 0 0 0 .262-.205c.07-.077.135-.16.205-.237a.483.483 0 0 0 .141-.26c.01-.054 0-.109.006-.163.013-.106-.029-.186-.096-.26a.725.725 0 0 1-.074-.099.526.526 0 0 0-.243-.22.388.388 0 0 0-.346.018.511.511 0 0 1-.086.039.158.158 0 0 0-.112.154c0 .038 0 .08.004.121a.194.194 0 0 0 .23.176.709.709 0 0 0 .138-.035c.045-.013.09-.029.144-.016.013.022.032.045.052.08.067.128.06.16-.061.237-.032.02-.064.042-.096.064a.173.173 0 0 0-.048.048c-.026.032-.045.067-.07.1-.062.076-.132.128-.241.13a.256.256 0 0 1-.234-.12.598.598 0 0 0-.256-.209c-.077-.035-.128-.077-.15-.157-.005-.013-.017-.026-.02-.042-.012-.045-.032-.092-.032-.137.003-.106.013-.215.02-.32a.197.197 0 0 1 .06-.126c.052-.05.097-.108.154-.153a.565.565 0 0 0 .15-.199.34.34 0 0 1 .068-.1.538.538 0 0 1 .324-.16l.188-.022a.358.358 0 0 1 .08 0c.068.01.135.023.202.035a.71.71 0 0 1 .423.228c.054.067.112.131.163.202.026.032.045.07.052.109a.82.82 0 0 0 .105.269c.03.048.058.096.084.147a.329.329 0 0 1 .038.205c-.026.128-.06.256-.086.384a.65.65 0 0 0-.013.157c0 .087.009.17.013.253a.438.438 0 0 1-.122.336.443.443 0 0 0-.067.087.753.753 0 0 1-.324.285c-.09.045-.18.09-.272.128a.838.838 0 0 1-.461.045 2.428 2.428 0 0 0-.34-.029c-.144 0-.288-.003-.41-.096a.117.117 0 0 0-.032-.016.477.477 0 0 1-.185-.134c-.042-.042-.077-.087-.116-.128-.077-.08-.153-.154-.266-.183a.365.365 0 0 1-.176-.109c-.035-.035-.073-.064-.112-.1-.025-.025-.051-.047-.073-.073a1.138 1.138 0 0 1-.25-.685c-.01-.177-.01-.356-.016-.532-.007-.18.007-.355.038-.535.058-.304.196-.564.4-.791.116-.128.25-.23.388-.333a.496.496 0 0 1 .24-.086c.119-.016.24-.007.359-.039.147-.041.298-.058.442-.109a.52.52 0 0 1 .208-.035c.128.003.256.003.381.016.195.022.388.07.57.147.074.032.148.058.221.09a.485.485 0 0 1 .112.064c.058.038.11.087.167.128.08.06.16.122.214.208.045.074.087.144.135.215a.883.883 0 0 1 .102.215c.03.083.058.17.084.252a.876.876 0 0 0 .288.462.235.235 0 0 1 .08.125c.022.09.042.179.058.272a.937.937 0 0 1 .019.23c-.013.215-.052.43-.103.638a1.623 1.623 0 0 1-.16.42 2.718 2.718 0 0 0-.144.268c-.057.128-.131.247-.16.385a.151.151 0 0 1-.029.05c-.032.042-.06.081-.093.12-.057.06-.109.13-.173.182a4.78 4.78 0 0 1-.33.24.225.225 0 0 1-.08.035c-.109.026-.21.061-.31.115a.825.825 0 0 1-.5.106 2.336 2.336 0 0 0-.56.042.828.828 0 0 1-.237.003c-.068-.01-.141-.026-.205.038.013.02.022.045.038.058.058.048.119.09.196.102.156.026.313.039.474.042.05 0 .105-.003.156 0a.18.18 0 0 1 .074.013c.077.038.16.032.24.022.17-.026.333-.07.484-.154.176-.099.365-.163.554-.237.07-.029.144-.057.208-.099.112-.07.221-.144.298-.25.08-.106.15-.218.214-.333a1.42 1.42 0 0 1 .205-.288.387.387 0 0 0 .077-.112c.055-.112.11-.224.16-.34a.48.48 0 0 0 .03-.096c.022-.121.038-.243.063-.362.039-.17.061-.34.07-.512.01-.14.008-.282.005-.423a.313.313 0 0 0-.02-.118c-.067-.148-.128-.298-.22-.436a.216.216 0 0 1-.033-.074l-.047-.224c-.02-.09-.042-.18-.058-.272a.567.567 0 0 0-.083-.215c-.061-.092-.119-.188-.18-.281a1.214 1.214 0 0 0-.31-.353 5.435 5.435 0 0 0-.173-.121 2.081 2.081 0 0 0-.526-.25c-.179-.058-.358-.112-.525-.202a.75.75 0 0 0-.186-.064 2.35 2.35 0 0 0-.448-.045zm7.395 7.798c-.039.016-.074.029-.109.045a.308.308 0 0 0-.096.051.604.604 0 0 0-.109.112c-.051.061-.093.128-.147.186a2.59 2.59 0 0 1-.196.18c-.17.14-.339.278-.512.416-.048.038-.096.083-.15.115-.2.125-.362.291-.532.448-.067.064-.135.125-.205.19a.222.222 0 0 1-.07.05c-.097.039-.193.084-.292.113-.08.025-.163.054-.24.09-.068.031-.135.06-.202.086a3.273 3.273 0 0 0-.756.413c-.346.25-.727.442-1.146.538-.32.074-.64.147-.961.214a1.77 1.77 0 0 1-.468.048c-.07-.003-.14 0-.211.003-.122.003-.247.017-.368.02-.298.009-.6-.007-.9.025-.186.02-.375.016-.56.02a1.2 1.2 0 0 1-.241-.007c-.154-.026-.304-.058-.455-.087-.176-.032-.352-.067-.528-.096-.07-.013-.141-.013-.208-.035a3.23 3.23 0 0 0-.289-.08 6.066 6.066 0 0 1-.784-.218c-.192-.07-.381-.147-.57-.22a.153.153 0 0 1-.039-.017 17.303 17.303 0 0 1-.317-.199 6.462 6.462 0 0 1-.195-.121c-.061-.039-.122-.074-.18-.112-.07-.048-.134-.103-.204-.148a2.567 2.567 0 0 1-.603-.54c-.041-.046-.08-.097-.128-.132-.128-.1-.272-.18-.4-.282a3.295 3.295 0 0 1-.384-.346c-.03-.032-.061-.06-.093-.09-.077-.07-.16-.13-.218-.217-.064-.093-.115-.19-.192-.273-.048-.054-.093-.105-.173-.115-.009.003-.022.007-.026.01-.083.025-.125.086-.115.172.004.022.004.048.007.074.007.048.013.1.032.144a.892.892 0 0 0 .106.176c.115.147.23.295.349.439a1.1 1.1 0 0 0 .147.15c.08.07.167.135.25.202.022.02.045.038.064.06l.346.44c.038.054.073.108.128.15a.106.106 0 0 1 .029.039c.025.048.064.08.112.105.154.08.304.157.455.237.096.055.192.106.281.167.141.099.276.211.417.31.205.141.42.27.64.378.25.125.513.205.782.276.096.025.189.054.285.086.16.055.323.106.483.16l.061.03c.042.015.087.038.132.05.105.026.214.048.323.074.17.039.34.067.51.09.099.013.198.029.297.038.1.013.202.03.304.03.193.002.382-.008.574-.01.291-.003.583-.009.874 0 .154.003.298-.038.448-.035.003.003.003 0 .007 0 .084-.02.17-.042.253-.058.144-.029.285-.07.436-.073.048-.003.1-.013.147-.023.212-.041.417-.109.622-.176.163-.054.314-.118.438-.24a.673.673 0 0 1 .276-.157c.115-.035.234-.058.342-.106l.039-.009c.106-.029.214-.054.314-.093.14-.054.275-.121.41-.185.14-.068.282-.138.42-.212a.68.68 0 0 0 .102-.07c.102-.087.201-.183.31-.266.205-.157.375-.343.541-.538.049-.054.1-.112.157-.16.122-.106.253-.202.372-.31.08-.078.173-.142.266-.2.099-.06.18-.14.24-.236.14-.224.317-.42.484-.625a.693.693 0 0 0 .083-.16c.009-.022.003-.051-.004-.074-.016-.06-.07-.08-.119-.099z" aria-label="econoiz" font-family="Work Sans" font-size="15.044" style="line-height:1.25;-inkscape-font-specification:&apos;Work Sans&apos;" transform="translate(-44.785 51.444) scale(.26671)"/>
</symbol>
<symbol id="maaji" viewBox="0 0 19.404 5.292"><path d="M13.23 5.047a.278.278 0 0 0-.087-.024.171.171 0 0 1-.069-.019 1.23 1.23 0 0 0-.068-.036.765.765 0 0 1-.21-.22 857.24 857.24 0 0 0-.094-.154 2.656 2.656 0 0 1-.09-.158.943.943 0 0 0-.254-.28 1.277 1.277 0 0 0-.275-.13c-.099-.034-.111-.036-.277-.03l-.172.006-.126.06a.524.524 0 0 0-.323.392c-.04.157-.015.22.137.334.145.108.142.164-.006.134a2.614 2.614 0 0 0-.2-.023 1.105 1.105 0 0 1-.206-.033.206.206 0 0 0-.137-.007 2.66 2.66 0 0 1-.225.026 1.333 1.333 0 0 0-.187.024.679.679 0 0 1-.12.018c-.075.006-.085.004-.11-.022-.026-.028-.027-.031-.007-.06a.957.957 0 0 1 .13-.118.701.701 0 0 0 .196-.222c.036-.058.141-.289.154-.34.007-.026.032-.105.057-.176.024-.07.044-.134.044-.14a1.6 1.6 0 0 1 .087-.23.456.456 0 0 0 .033-.093.399.399 0 0 1 .031-.087.226.226 0 0 0 .023-.055 1.726 1.726 0 0 0 .105-.345c.024-.1.063-.21.093-.268a.232.232 0 0 0 .027-.067c0-.01.01-.035.023-.056a.32.32 0 0 0 .031-.106.275.275 0 0 1 .027-.096.116.116 0 0 0 .019-.05c0-.018.077-.225.1-.265a.62.62 0 0 0 .029-.09c.01-.037.035-.113.057-.168.038-.1.081-.253.12-.429.02-.098.01-.21-.023-.25a.333.333 0 0 1-.033-.052c-.01-.023-.036-.04-.082-.056-.087-.03-.122-.015-.156.064-.034.08-.032.142.006.194.083.114.087.175.016.256a.28.28 0 0 1-.338.075c-.07-.033-.175-.133-.19-.182a.265.265 0 0 0-.03-.063.983.983 0 0 1-.075-.293c-.013-.095-.01-.111.05-.287a.927.927 0 0 0 .037-.132c0-.03.085-.129.15-.176a2.49 2.49 0 0 0 .124-.098c.083-.07.234-.13.41-.161a.388.388 0 0 0 .107-.037c.069-.043.206-.033.488.035.18.044.244.073.315.142a.382.382 0 0 1 .073.09.164.164 0 0 0 .032.052c.044.048.136.221.168.316a.72.72 0 0 0 .041.106c.005.007.013.03.016.05.003.02.013.054.02.075.031.09.09.302.09.324 0 .014.01.055.024.091s.04.12.057.187.042.15.055.184a.666.666 0 0 1 .032.119.9.9 0 0 0 .024.112c.009.03.032.115.05.187.019.072.044.156.056.187a.83.83 0 0 1 .036.119c.015.073.044.182.077.286a18.954 18.954 0 0 1 .163.58c.026.1.048.193.048.207 0 .014.012.047.026.074a.25.25 0 0 1 .025.064c0 .008.008.021.018.03.01.007.022.035.027.06a.431.431 0 0 0 .038.102.29.29 0 0 1 .03.071c0 .032.142.163.19.177.065.017.132-.01.188-.075.055-.065.063-.12.031-.213-.038-.11-.003-.137.093-.07a.462.462 0 0 1 .127.198.442.442 0 0 1 .031.21c0 .15-.03.27-.092.365-.058.088-.222.242-.277.26a.261.261 0 0 0-.069.033.63.63 0 0 1-.124.054c-.13.046-.296.051-.38.013zm-1.116-1.629.09-.017c.005 0 .018-.017.029-.038.017-.033.017-.052.005-.135a.623.623 0 0 0-.03-.127.354.354 0 0 1-.024-.096.273.273 0 0 0-.026-.093.266.266 0 0 1-.027-.085.422.422 0 0 0-.03-.1.42.42 0 0 1-.03-.087 1.374 1.374 0 0 0-.041-.134c-.026-.074-.038-.091-.067-.102l-.036-.012-.092.19a2.074 2.074 0 0 0-.127.313 2.28 2.28 0 0 1-.06.187c-.114.287.068.42.465.336zm3.274 1.632a.281.281 0 0 0-.078-.031.514.514 0 0 1-.096-.034.281.281 0 0 0-.08-.025.125.125 0 0 1-.06-.029 1.605 1.605 0 0 0-.105-.074.669.669 0 0 1-.116-.1 2.812 2.812 0 0 0-.091-.098c-.054-.056-.084-.104-.165-.267-.115-.23-.128-.301-.123-.636.004-.243.005-.251.038-.318.108-.216.169-.3.263-.358.102-.065.12-.07.259-.068.123 0 .136.003.205.04.196.103.205.112.284.274a.494.494 0 0 1 .072.268c.008.143-.002.196-.047.246-.025.028-.047.027-.11-.003-.138-.067-.275.009-.313.173-.04.167-.01.288.094.386.088.084.113.093.237.087.117-.006.153-.022.258-.119.098-.09.14-.191.18-.427.007-.052.02-.114.026-.138.017-.067.014-1.592-.004-1.837a1.99 1.99 0 0 1-.001-.362c.009-.102.01-.257.004-.47l-.01-.318-.046-.13a.945.945 0 0 0-.13-.266c-.026-.04-.029-.052-.017-.078.017-.036.036-.039.098-.013.08.034.26.045.59.038.176-.004.341-.013.369-.019.027-.006.09-.013.14-.016.088-.005.093-.004.106.024.012.026.003.053-.063.195-.042.09-.083.192-.09.224-.033.155-.04.469-.033 1.712.006 1.218.005 1.28-.018 1.46a1.48 1.48 0 0 1-.213.644.905.905 0 0 1-.302.31c-.101.061-.11.067-.145.09a.258.258 0 0 1-.08.028.26.26 0 0 0-.082.03c-.026.017-.073.021-.3.024-.244.003-.271.002-.305-.02zM8.97 5.048a1.038 1.038 0 0 1-.296-.178 1.332 1.332 0 0 1-.198-.27 1.547 1.547 0 0 0-.086-.14c-.132-.2-.32-.377-.448-.423a.824.824 0 0 0-.376-.06c-.18 0-.19 0-.28.04a.72.72 0 0 0-.323.308c-.051.105-.064.212-.033.29a.55.55 0 0 0 .21.213c.036.021.059.043.059.057 0 .032-.037.065-.061.056a.944.944 0 0 0-.132-.014 1.289 1.289 0 0 1-.238-.042c-.174-.049-.262-.056-.345-.026-.071.025-.288.05-.43.05-.15 0-.156-.052-.02-.161a.895.895 0 0 0 .311-.389 2.82 2.82 0 0 0 .122-.285c.032-.098.055-.165.113-.33.012-.035.043-.142.069-.238.026-.096.056-.197.066-.224a.28.28 0 0 0 .02-.073c0-.012.01-.04.02-.06a.631.631 0 0 0 .037-.096l.061-.183a.958.958 0 0 0 .045-.147c0-.012.014-.049.031-.081a.298.298 0 0 0 .032-.077.26.26 0 0 1 .024-.07.263.263 0 0 0 .025-.067c0-.01.011-.04.024-.068a.886.886 0 0 0 .043-.12c.025-.09.068-.212.081-.23a.183.183 0 0 0 .02-.057.68.68 0 0 1 .031-.1c.046-.11.1-.398.1-.528 0-.167-.07-.245-.235-.26-.04-.004-.045 0-.074.056-.03.057-.03.063-.015.131.01.04.03.104.047.145.04.096.031.146-.035.217a.258.258 0 0 0-.05.065c0 .015-.187.016-.226.001a.605.605 0 0 1-.112-.09.557.557 0 0 1-.165-.285l-.02-.138a.48.48 0 0 1 .01-.222.68.68 0 0 1 .24-.434.66.66 0 0 1 .286-.173c.042-.008.111-.032.24-.083.072-.029.283-.03.415-.005.165.033.238.052.269.071A.43.43 0 0 0 7.9.356c.032.01.078.048.148.122.136.144.185.242.325.658.055.162.072.22.118.412.04.16.125.427.156.488a.23.23 0 0 1 .024.083c0 .037.063.257.094.33.01.022.021.064.025.094.004.029.021.103.038.165l.05.187.061.212c.023.075.05.182.063.237a1 1 0 0 0 .033.13c.007.018.023.066.035.107.039.13.111.335.136.387.014.027.037.078.053.112.056.124.168.208.262.196.047-.006.143-.094.16-.148A.357.357 0 0 0 9.689 4c-.006-.06-.004-.089.009-.106.016-.022.018-.022.066.008.06.038.067.047.115.14.032.063.04.096.047.195a1.06 1.06 0 0 1-.05.415.513.513 0 0 1-.126.155.57.57 0 0 1-.113.09c-.01 0-.032.013-.051.028a.367.367 0 0 1-.177.084.36.36 0 0 0-.102.025.441.441 0 0 1-.184.024.878.878 0 0 1-.152-.01zM7.93 3.412a.069.069 0 0 0 .037-.042c.02-.083-.031-.403-.081-.5a.23.23 0 0 1-.026-.07.204.204 0 0 0-.018-.063 1.271 1.271 0 0 1-.045-.154c-.036-.15-.053-.18-.1-.18-.03 0-.043.01-.07.053a.742.742 0 0 0-.052.1.322.322 0 0 1-.051.083c-.038.042-.062.104-.1.263a1.08 1.08 0 0 1-.052.164.353.353 0 0 0 .009.28c.046.08.086.096.255.104a.61.61 0 0 0 .295-.038zM4.287 4.911c-.044-.046-.033-.097.037-.166.062-.062.166-.25.169-.303a4.211 4.211 0 0 0-.047-.455 3.586 3.586 0 0 1-.029-.225.554.554 0 0 0-.041-.178 1.095 1.095 0 0 1-.064-.327 2.508 2.508 0 0 0-.07-.406.26.26 0 0 1-.012-.09.455.455 0 0 0-.02-.123.19.19 0 0 1-.013-.076c.003-.012-.006-.036-.02-.054-.023-.03-.026-.03-.048-.01-.013.011-.024.027-.024.034a.263.263 0 0 1-.037.069.219.219 0 0 0-.038.078c0 .052-.09.297-.141.385a.587.587 0 0 0-.064.145.654.654 0 0 1-.052.137 2.186 2.186 0 0 0-.153.386.247.247 0 0 0-.026.06.882.882 0 0 1-.062.13.552.552 0 0 0-.056.133 1.48 1.48 0 0 1-.088.256 2.69 2.69 0 0 0-.1.318c-.047.164-.088.222-.125.173a2.013 2.013 0 0 1-.125-.254 2.089 2.089 0 0 0-.065-.143 5.081 5.081 0 0 1-.09-.194 1.066 1.066 0 0 0-.05-.106.582.582 0 0 1-.035-.08 1.615 1.615 0 0 0-.11-.265.587.587 0 0 1-.042-.099c0-.025-.086-.214-.238-.529a3.753 3.753 0 0 1-.144-.32.281.281 0 0 1-.03-.083c0-.038-.07-.18-.104-.212-.028-.027-.034-.028-.067-.013-.032.016-.036.027-.05.117a6.864 6.864 0 0 1-.035.193 3.99 3.99 0 0 0-.037.28c-.01.104-.024.227-.032.275a3.451 3.451 0 0 0-.024.262c-.006.096-.017.2-.024.232-.008.035-.01.165-.008.33.004.217.01.291.029.356.02.075.079.174.102.174.005 0 .035.034.068.076.046.06.056.08.042.087-.027.018-.26-.003-.326-.028a.684.684 0 0 0-.338-.004.86.86 0 0 1-.193.018.966.966 0 0 0-.169.011c-.06.016-.1 0-.084-.033a3.83 3.83 0 0 0 .04-.083.813.813 0 0 1 .05-.095c.05-.071.124-.403.124-.553 0-.053.01-.124.026-.176.014-.05.036-.192.05-.33.013-.134.029-.277.036-.318.027-.167.042-.323.052-.524.012-.261.027-.432.039-.45a1.42 1.42 0 0 0 .028-.175c.01-.089.027-.186.038-.215.022-.064.027-.421.008-.58-.015-.121-.056-.19-.127-.208-.059-.016-.074-.01-.11.041-.024.036-.026.049-.016.102.006.033.017.063.023.067a.51.51 0 0 1 .14.14c.02.046.008.117-.026.148a.529.529 0 0 1-.205.1c-.02 0-.074.004-.12.008-.122.01-.145-.004-.333-.209-.038-.041-.079-.138-.166-.393-.012-.033-.007-.068.028-.211.05-.206.072-.24.26-.404a.616.616 0 0 1 .186-.129 13.958 13.958 0 0 1 .3-.09.756.756 0 0 1 .382.015c.062.018.13.04.15.048.02.01.063.02.093.025.076.012.117.04.213.14.156.163.188.209.303.434.058.114.12.254.12.27 0 .01.015.045.032.08.016.033.03.069.03.078 0 .009.026.07.056.137.03.066.059.135.063.152.01.038.074.207.1.265.034.077.131.331.131.343 0 .006.012.022.025.035.014.012.025.029.025.037 0 .028.086.188.116.216.026.024.032.025.054.01a.16.16 0 0 0 .041-.072.356.356 0 0 1 .034-.078.102.102 0 0 0 .017-.052c0-.015.017-.069.037-.119a.726.726 0 0 0 .038-.106.39.39 0 0 1 .036-.082c.02-.037.053-.12.076-.185a2.73 2.73 0 0 1 .05-.138.696.696 0 0 0 .03-.106c.027-.12.047-.186.114-.373.103-.29.12-.478.056-.611C3.697.606 3.696.6 3.716.58c.025-.025-.025-.024.772-.02.553.003.616.005.635.024.019.02.017.023-.022.043-.155.08-.224.208-.217.404.005.15.029.412.044.487.007.038.021.161.032.274.01.114.023.226.03.25.007.024.02.11.031.19.01.08.028.194.038.254.01.06.019.146.019.192 0 .046.012.127.027.182.014.054.032.152.038.217l.017.162c.003.024.01.117.016.207.009.141.013.167.039.202.026.036.028.048.022.153a.522.522 0 0 0 .045.28.28.28 0 0 1 .02.12c0 .053.007.09.02.108.01.015.028.057.038.093.036.121.125.282.204.368a.351.351 0 0 1 .075.105c0 .034-.044.052-.104.043a1.849 1.849 0 0 0-.145-.015.479.479 0 0 1-.144-.03c-.071-.033-.205-.044-.25-.021a.708.708 0 0 1-.192.026 2.95 2.95 0 0 0-.452.057c-.027.009-.039.005-.065-.023zm13.32.027c-.059-.004-.066-.008-.078-.041-.01-.031-.007-.048.025-.109.02-.04.058-.1.082-.136.048-.07.047-.065.079-.447.008-.096.02-.205.026-.242.015-.094.014-2.058-.002-2.502-.014-.376-.035-.578-.066-.639a.706.706 0 0 0-.102-.114c-.072-.069-.082-.084-.079-.118.005-.054.05-.077.1-.051.024.012.042.014.058.006.014-.008.053-.006.113.005.153.029.593.022.977-.015.082-.008.084-.007.099.026.021.047.002.094-.055.13-.026.017-.047.04-.047.049a.21.21 0 0 1-.023.063c-.072.137-.092.28-.113.825-.012.331.006 2.464.024 2.697.013.171.03.246.073.307a.44.44 0 0 1 .038.072.398.398 0 0 0 .077.1c.07.069.08.112.03.125a.142.142 0 0 1-.06 0 2.911 2.911 0 0 0-.221-.02 1.866 1.866 0 0 1-.284-.036c-.084-.022-.098-.023-.156-.006-.036.01-.1.024-.145.03a4.73 4.73 0 0 0-.138.025.886.886 0 0 1-.233.016z"/>
</symbol>
<symbol id="ryos" viewBox="0 0 26.987 5.292"><g color="#000"><path d="M378.098-156.533c-2.239 0-4.311.13-6.215.389-1.89.259-3.475.633-4.754 1.121-1.338.513-2.353 1.131-3.051 1.854-.698.717-1.047 1.529-1.047 2.435 0 .922.35 1.742 1.047 2.46.712.716 1.721 1.32 3.03 1.814 1.308.493 2.893.87 4.753 1.129 1.875.259 3.954.388 6.237.388 2.34 0 4.417-.127 6.234-.38 1.831-.255 3.417-.634 4.754-1.137 1.293-.484 2.297-1.085 3.01-1.807.726-.727 1.09-1.55 1.09-2.467 0-.916-.357-1.737-1.069-2.459-.698-.722-1.708-1.332-3.031-1.83-1.294-.483-2.87-.854-4.73-1.113-1.847-.264-3.933-.397-6.258-.397zm.021 1.278c3.27 0 5.85.394 7.74 1.181 1.89.782 2.834 1.896 2.834 3.34 0 1.46-.958 2.579-2.877 3.356-1.904.772-4.47 1.158-7.697 1.158-3.227 0-5.8-.386-7.719-1.158-1.918-.777-2.879-1.896-2.879-3.356 0-1.444.938-2.558 2.813-3.34 1.89-.787 4.485-1.181 7.785-1.181z" style="-inkscape-stroke:none" transform="translate(-35.594 23.376) scale(.13752)"/><path d="M378.098-157.121c-2.262 0-4.36.131-6.295.394-1.922.264-3.548.644-4.885 1.155-1.39.533-2.482 1.186-3.262 1.992-.784.806-1.215 1.788-1.215 2.846 0 1.07.43 2.061 1.215 2.869l.002.004.002.002c.792.797 1.877 1.435 3.24 1.949 1.363.514 2.987.899 4.88 1.162h.001c1.908.264 4.012.395 6.317.395 2.36 0 4.463-.128 6.314-.387 1.865-.259 3.492-.647 4.881-1.17 1.347-.504 2.428-1.14 3.219-1.941.814-.815 1.262-1.811 1.262-2.883 0-1.068-.436-2.057-1.233-2.867l-.002-.002c-.78-.807-1.868-1.452-3.246-1.971h-.002c-1.347-.503-2.962-.881-4.851-1.145h-.004c-1.88-.268-3.992-.402-6.338-.402zm0 1.178c2.303 0 4.362.131 6.173.39h.002c1.83.255 3.367.62 4.606 1.082v-.002c1.267.477 2.2 1.053 2.814 1.69l.002.002.002.002c.625.633.899 1.28.899 2.045 0 .76-.277 1.41-.916 2.05l-.002.002-.002.002c-.633.642-1.56 1.206-2.797 1.668-1.285.484-2.829.856-4.627 1.106h-.002c-1.783.25-3.833.375-6.152.375-2.26 0-4.314-.128-6.157-.383-1.828-.254-3.373-.625-4.627-1.098-1.251-.471-2.181-1.039-2.814-1.675-.609-.627-.88-1.275-.88-2.047 0-.756.269-1.397.88-2.026h.002c.616-.637 1.554-1.22 2.836-1.713 1.221-.466 2.767-.833 4.625-1.087 1.874-.255 3.919-.383 6.135-.383zm.021.1c-3.346 0-6.01.392-8.012 1.226-.997.416-1.784.933-2.334 1.586a3.526 3.526 0 0 0-.841 2.297c0 .858.3 1.663.863 2.318.562.655 1.366 1.171 2.385 1.584 2.024.815 4.665 1.201 7.94 1.201 3.273 0 5.906-.385 7.917-1.201 1.019-.413 1.823-.93 2.385-1.586.562-.655.86-1.458.86-2.316a3.52 3.52 0 0 0-.848-2.3c-.554-.651-1.345-1.168-2.348-1.583h-.002c-2-.833-4.648-1.227-7.965-1.227zm0 1.177c3.223 0 5.735.396 7.514 1.137h.002c.885.366 1.51.797 1.9 1.258.391.46.569.943.569 1.537 0 .6-.18 1.087-.577 1.55-.397.464-1.031.896-1.931 1.26-1.797.729-4.297 1.115-7.477 1.115-3.179 0-5.685-.386-7.498-1.115h-.002c-.899-.364-1.534-.797-1.931-1.26a2.25 2.25 0 0 1-.579-1.55c0-.595.177-1.079.565-1.54.388-.46 1.008-.891 1.887-1.257v.002c1.777-.74 4.305-1.137 7.558-1.137z" style="-inkscape-stroke:none" transform="translate(-35.594 23.376) scale(.13752)"/></g><g color="#000"><path d="M273.297-156.3v11.125h4.318v-4.422h6.082l10.86 4.422h5.603l-12.21-4.864c2.063-.274 3.685-.68 4.862-1.218 1.178-.543 1.766-1.216 1.766-2.018 0-.593-.335-1.081-1.004-1.465-.654-.388-1.569-.709-2.746-.963-1.047-.224-2.225-.378-3.533-.462-1.308-.09-2.942-.135-4.905-.135zm4.318 1.27h5.08c1.163 0 2.174.03 3.031.09.858.054 1.598.154 2.223.298.756.17 1.294.38 1.613.629.335.244.502.525.502.844 0 .418-.158.765-.478 1.039-.305.269-.786.507-1.44.717-.712.224-1.578.378-2.595.462-1.018.08-2.21.12-3.577.12h-4.359z" style="-inkscape-stroke:none" transform="translate(-35.594 23.376) scale(.13752)"/><path d="M272.707-156.889v12.303h5.496v-4.422h5.379l10.86 4.422h8.787l-13.377-5.328c1.14-.242 2.4-.441 3.205-.809h.002c.638-.294 1.15-.635 1.521-1.058.37-.424.586-.95.586-1.494 0-.814-.516-1.524-1.297-1.973-.738-.438-1.703-.768-2.916-1.03h-.002a25.098 25.098 0 0 0-3.619-.476l.004.002c-1.328-.09-2.974-.137-4.945-.137zm1.178 1.178h8.506c1.953 0 3.575.045 4.863.133h.002c1.284.083 2.435.234 3.447.451 1.14.246 2.001.555 2.57.893l.004.004.004.002c.556.318.708.582.708.953 0 .257-.078.47-.295.719-.218.248-.589.515-1.125.763-1.094.5-2.67.9-4.698 1.17l-2.234.297 11.455 4.562h-2.42l-10.86-4.421h-6.786v4.421h-3.141zm3.14.092v5.377h4.95c1.377 0 2.583-.04 3.62-.121h.005c1.049-.088 1.953-.247 2.722-.489h.002l.002-.002c.697-.222 1.24-.478 1.645-.834.43-.37.682-.916.682-1.482 0-.523-.31-.997-.739-1.312-.443-.343-1.04-.555-1.832-.733a14.476 14.476 0 0 0-2.318-.314l.004.002c-.876-.061-1.9-.092-3.072-.092zm1.178 1.178h4.492c1.153 0 2.151.029 2.99.087h.005c.833.054 1.543.15 2.127.286h.004c.712.16 1.186.368 1.38.52l.006.005.008.006c.237.173.26.255.26.367 0 .27-.065.415-.271.592l-.004.004-.002.002c-.205.18-.62.403-1.23.598-.656.206-1.48.355-2.466.437a45.97 45.97 0 0 1-3.527.118h-3.772z" style="-inkscape-stroke:none" transform="translate(-35.594 23.376) scale(.13752)"/></g><g color="#000"><path d="m343.86-156.3-11.425 6.246v4.88h-4.318v-4.723L316.65-156.3h4.775l8.874 4.977 8.961-4.977z" style="-inkscape-stroke:none" transform="translate(-35.594 23.376) scale(.13752)"/><path d="M318.912-155.71h2.358l9.027 5.06 9.115-5.06h2.145l-9.711 5.308v4.638h-3.139v-4.478z" style="-inkscape-stroke:none" transform="translate(-35.594 23.376) scale(.13752)"/><path d="m314.387-156.889 13.142 7.338v4.965h5.494v-5.12l13.141-7.183h-7.057l-8.808 4.891-8.72-4.89z" style="-inkscape-stroke:none" transform="translate(-35.594 23.376) scale(.13752)"/></g><g color="#000"><path d="M440.592-148.35q0 .65-.894 1.285-.872.635-2.464 1.076-1.744.478-4.077.747-2.311.27-5.582.27-3.51 0-6.323-.225-2.791-.224-5.69-.665v-1.853h.304q2.464.702 5.691 1.084 3.227.38 6.062.38 4.011 0 6.235-.515 2.246-.516 2.246-1.375 0-.74-1.068-1.09-1.047-.352-3.205-.546-1.636-.15-3.554-.247-1.897-.097-4.034-.246-4.317-.314-6.41-1.069-2.072-.762-2.072-1.98 0-1.397 3.445-2.287 3.445-.896 8.744-.896 3.423 0 6.28.224 2.855.224 5.058.553v1.748h-.306q-1.853-.538-4.884-.889-3.009-.359-6.17-.359-3.467 0-5.582.494-2.093.493-2.093 1.27 0 .695 1.046 1.09 1.047.397 3.685.606 1.396.105 3.969.254 2.572.15 4.36.307 3.62.328 5.451.993 1.832.665 1.832 1.86z" style="-inkscape-stroke:none" transform="translate(-35.594 23.376) scale(.13752)"/><path d="M427.945-157.092c-3.565 0-6.522.3-8.89.916-1.185.306-2.096.654-2.762 1.096-.666.442-1.125 1.054-1.125 1.762 0 .573.269 1.116.701 1.529.433.413 1.018.73 1.756 1.002l.002.002h.002c1.492.538 3.661.89 6.566 1.101h.002c1.428.1 2.777.184 4.045.249a87.79 87.79 0 0 1 3.532.244c1.416.127 2.457.312 3.07.517h.002l.002.002c.298.098.48.214.564.301.085.087.1.126.1.23 0 .03 0 .1-.281.272-.281.172-.794.365-1.508.53h-.002c-1.407.325-3.452.5-6.102.5a51.25 51.25 0 0 1-5.992-.378c-2.127-.25-3.995-.607-5.6-1.064l-.078-.022h-.976v2.948l.5.076c1.946.296 3.857.52 5.732.67 1.895.15 4.017.224 6.37.224 2.196 0 4.077-.088 5.65-.271 1.578-.182 2.966-.437 4.166-.766 1.104-.306 1.987-.682 2.654-1.168.67-.477 1.135-1.059 1.135-1.76 0-.548-.233-1.076-.627-1.476-.394-.4-.928-.697-1.592-.938-1.309-.475-3.158-.805-5.598-1.027h-.002c-1.2-.105-2.66-.207-4.378-.307a252.432 252.432 0 0 1-3.956-.253h-.004c-1.732-.138-2.943-.35-3.52-.569-.295-.112-.48-.236-.567-.328-.088-.092-.098-.129-.098-.213 0 .005-.018-.047.24-.203.258-.156.734-.338 1.399-.494 1.34-.313 3.164-.479 5.447-.479 2.085 0 4.12.12 6.101.356h.002c2 .232 3.602.525 4.787.869l.08.023h.98v-2.843l-.503-.075a74.191 74.191 0 0 0-5.1-.558 81.261 81.261 0 0 0-6.326-.227zm0 1.178c2.27 0 4.349.075 6.235.223a73.1 73.1 0 0 1 4.515.494v.572c-1.23-.327-2.674-.611-4.53-.826h-.003a52.692 52.692 0 0 0-6.238-.362c-2.34 0-4.236.163-5.715.508h-.002c-.731.173-1.3.368-1.74.635-.44.267-.807.686-.807 1.21 0 .378.165.754.426 1.026.26.272.6.462 1.002.614.819.31 2.064.501 3.845.642h.002c.937.07 2.262.154 3.979.254 1.71.1 3.158.203 4.342.307 2.386.217 4.17.547 5.303.959.557.202.939.438 1.156.658.217.22.289.402.289.65 0 .164-.128.437-.647.805l-.004.002-.002.002c-.496.361-1.257.703-2.275.984-1.125.309-2.455.554-3.986.73h-.002c-1.51.177-3.35.267-5.514.267-2.328 0-4.42-.075-6.275-.223a80.42 80.42 0 0 1-5.149-.602v-.68c1.586.427 3.33.781 5.338 1.018 2.171.257 4.215.385 6.13.385 2.7 0 4.811-.17 6.37-.531.782-.18 1.39-.386 1.857-.672.468-.286.844-.733.844-1.276 0-.388-.164-.777-.435-1.054-.27-.276-.623-.458-1.036-.594-.781-.262-1.877-.443-3.337-.574h-.002c-1.1-.1-2.291-.183-3.577-.248-1.26-.065-2.6-.147-4.021-.246h-.002c-2.85-.208-4.952-.567-6.25-1.035-.641-.237-1.09-.502-1.348-.749-.258-.246-.336-.438-.336-.677 0-.224.116-.462.598-.782s1.294-.648 2.406-.935h.002c2.226-.58 5.095-.879 8.594-.879z" style="-inkscape-stroke:none" transform="translate(-35.594 23.376) scale(.13752)"/></g><g aria-label="*" class="cls-2" color="#000" font-family="Haettenschweiler" font-size="96.968" font-weight="700" letter-spacing=".38em"><path d="m59.279-39.582-5.256 7.812-15.15-10.322.52 16.808H29.308l.379-16.382-14.867 9.943-5.161-7.86 16.808-9.895-16.76-9.99 5.113-7.907L29.64-57.29l-.332-16.383h10.038l-.38 16.43 15.01-9.99 5.256 7.86-16.95 9.848z" style="-inkscape-stroke:none" transform="matrix(.02392 0 0 .02284 .05 3.787)"/><path d="m28.797-74.172.322 15.924-14.441-9.828-5.674 8.771 16.482 9.825-16.533 9.734 5.725 8.719 14.488-9.688-.37 15.932h11.112l-.506-16.342 14.756 10.05 5.832-8.671-.459-.268-16.258-9.51 16.67-9.685-5.828-8.717-14.627 9.735.37-15.98zm1.021 1h9.016l-.389 16.877L53.838-66.54l4.682 7.002-17.23 10.012L58.565-39.42l-4.675 6.953-15.55-10.592.536 17.276H29.82l.389-16.834L14.961-32.42l-4.596-6.998 17.082-10.057-17.039-10.158 4.555-7.04 15.195 10.341z" style="-inkscape-stroke:none" transform="matrix(.02392 0 0 .02284 .05 3.787)"/></g><g aria-label="*" class="cls-2" color="#000" font-family="Haettenschweiler" font-size="96.968" font-weight="700" letter-spacing=".38em"><path d="m59.279-39.582-5.256 7.812-15.15-10.322.52 16.808H29.308l.379-16.382-14.867 9.943-5.161-7.86 16.808-9.895-16.76-9.99 5.113-7.907L29.64-57.29l-.332-16.383h10.038l-.38 16.43 15.01-9.99 5.256 7.86-16.95 9.848z" style="-inkscape-stroke:none" transform="matrix(.02392 0 0 .02284 25.288 3.787)"/><path d="m28.797-74.172.322 15.924-14.441-9.828-5.674 8.771 16.482 9.825-16.533 9.734 5.725 8.719 14.488-9.688-.37 15.932h11.112l-.506-16.342 14.756 10.05 5.832-8.671-.459-.268-16.258-9.51 16.67-9.685-5.828-8.717-14.627 9.735.37-15.98zm1.021 1h9.016l-.389 16.877L53.838-66.54l4.682 7.002-17.23 10.012L58.565-39.42l-4.675 6.953-15.55-10.592.536 17.276H29.82l.389-16.834L14.961-32.42l-4.596-6.998 17.082-10.057-17.039-10.158 4.555-7.04 15.195 10.341z" style="-inkscape-stroke:none" transform="matrix(.02392 0 0 .02284 25.288 3.787)"/></g>
</symbol>
<symbol id="werebuzy" viewBox="0 0 26.987 5.292"><path d="m25.403 3.946-.788-1.807q-.177-.41-.263-.504-.084-.094-.204-.13v-.097h1.296v.097q-.127.005-.18.05-.052.044-.052.106 0 .1.13.392l.418.954.284-.738q.154-.394.154-.548 0-.096-.065-.153-.063-.058-.224-.063v-.097h.816v.097q-.12.013-.196.094-.075.078-.253.54l-.696 1.807q-.263.678-.391.835-.18.219-.451.219-.217 0-.352-.125-.133-.123-.133-.298 0-.151.09-.25.095-.1.23-.1.13 0 .209.084.08.084.083.258.003.1.024.128.02.029.06.029.062 0 .133-.076.104-.11.245-.5zm-1.492-.099h-2.123V3.79l1.34-2.222h-.39q-.254 0-.363.046-.11.045-.178.147-.067.099-.14.357h-.092v-.71h2.053v.07l-1.33 2.202h.167q.5 0 .722-.143.222-.144.334-.525h.073zm-2.613-2.439v1.91q0 .279.052.35.052.067.211.085v.094h-.994v-.326q-.174.209-.35.305-.174.094-.39.094-.206 0-.368-.125-.16-.128-.214-.297-.055-.17-.055-.593v-.967q0-.277-.052-.344-.05-.068-.211-.089v-.097h.994v1.667q0 .26.023.336.026.076.078.115.055.04.125.04.094 0 .17-.05.104-.068.25-.274V1.938q0-.277-.052-.344-.05-.068-.211-.089v-.097zM16.916.31v1.344q.308-.319.673-.319.25 0 .472.15.222.145.347.416.125.272.125.626 0 .4-.159.725-.16.326-.425.499-.266.169-.608.169-.198 0-.352-.063t-.302-.203l-.405.263h-.088v-3.1q0-.212-.019-.261-.026-.073-.083-.107-.055-.037-.188-.042V.31zm0 1.576V2.97q0 .33.016.422.026.154.125.25.099.094.253.094.133 0 .227-.075.096-.076.159-.3.065-.224.065-.809 0-.56-.14-.769-.102-.151-.275-.151-.224 0-.43.253zm-1.275.654h-1.338q.023.485.258.767.18.217.433.217.156 0 .284-.086.128-.09.274-.316l.089.057q-.199.405-.438.574-.24.167-.556.167-.542 0-.822-.417-.224-.337-.224-.835 0-.61.329-.97.331-.363.774-.363.37 0 .642.306.274.302.295.9zm-.642-.174q0-.42-.047-.577-.044-.156-.14-.237-.055-.047-.147-.047-.135 0-.221.133-.154.232-.154.636v.092zm-2.3-.958v.553q.242-.378.425-.5.183-.126.352-.126.146 0 .232.092.089.088.089.253 0 .174-.086.27-.084.097-.204.097-.138 0-.24-.088-.101-.089-.12-.1-.026-.015-.06-.015-.075 0-.143.057-.107.09-.162.253-.083.253-.083.558v.561l.002.146q0 .149.019.19.031.071.091.105.063.031.209.04v.093h-1.317v-.094q.159-.013.213-.086.058-.076.058-.394V1.925q0-.209-.021-.266-.026-.073-.076-.107t-.174-.047v-.097zm-1.45 1.132H9.91q.023.485.258.767.18.217.433.217.156 0 .284-.086.128-.09.274-.316l.089.057q-.198.405-.438.574-.24.167-.556.167-.542 0-.821-.417-.225-.337-.225-.835 0-.61.329-.97.331-.363.774-.363.37 0 .642.306.274.302.295.9zm-.642-.174q0-.42-.047-.577-.044-.156-.14-.237-.055-.047-.147-.047-.135 0-.221.133-.154.232-.154.636v.092zM7.87 3.92 7.2 2.13l-.655 1.79H6.41l-.65-1.768q-.146-.404-.247-.527-.066-.084-.199-.12v-.097h1.231v.097q-.125 0-.172.036-.047.037-.047.084 0 .044.084.266l.357.952.344-.952-.026-.063q-.078-.195-.138-.247-.057-.055-.18-.076v-.097h1.25v.097q-.147.008-.186.042-.039.031-.039.09 0 .058.076.254l.344.952.313-.876q.068-.188.068-.256 0-.102-.05-.149t-.193-.057v-.097h.723v.097q-.12.016-.19.086-.071.068-.183.391L8.017 3.92zM.63.22a.368.368 0 0 0-.367.366v2.737a.364.364 0 0 0 .028.141.356.356 0 0 0 .103.14l.004.004.343.277.108.087 1.289 1.043a.264.264 0 0 0 .329 0l.454-.366.107-.087.248-.201.018-.014.09-.072.017-.015.251-.203.015-.012.092-.074.015-.013.27-.217.107-.087.055-.044a.366.366 0 0 0 .136-.285V.585A.368.368 0 0 0 3.977.22zm0 .318h1.355l.986 1.1a.073.073 0 0 1-.004.102.072.072 0 0 1-.05.02h-.001l-.64-.009a.074.074 0 0 1-.052-.022l-.33-.343a.357.357 0 0 0-.512 0l-.8.819V.585a.05.05 0 0 1 .05-.046zm1.739 0h1.607c.027 0 .047.021.047.048v2.737a.048.048 0 0 1-.018.038l-.017.014-.84-.836a.378.378 0 0 0-.645.228.381.381 0 0 0-.34.337.381.381 0 0 0-.337.342.378.378 0 0 0-.236.64l.316.331-.775-.626.947-.911-.002.001a.146.146 0 0 0 .049-.108.143.143 0 0 0-.041-.096.143.143 0 0 0-.095-.045.145.145 0 0 0-.11.044l-.97.935-.231-.186 1.016-.979a.145.145 0 0 0 .042-.106.143.143 0 0 0-.041-.092.144.144 0 0 0-.09-.044.145.145 0 0 0-.108.036v.001l-.914.88v-.508l1.002-1.029a.07.07 0 0 1 .102 0l.334.343a.358.358 0 0 0 .252.109l.64.009a.362.362 0 0 0 .25-.098.36.36 0 0 0 .02-.5zm.51 2.173c.025 0 .05.01.067.029l.82.816-.154.125-.774-.778-.002-.002-.026-.027a.09.09 0 0 1-.02-.105.09.09 0 0 1 .089-.058zm-.38.082v.001zm.042.256a.095.095 0 0 1 .068.029l.04.04.728.753-.139.112-.715-.718-.01-.01-.041-.043a.094.094 0 0 1-.027-.066c0-.055.042-.097.096-.097zm-.243.096zm-.095.24c.025 0 .05.011.067.029l.034.033.696.726-.136.111-.686-.69-.001-.001-.043-.045a.095.095 0 0 1-.027-.066c0-.054.042-.096.096-.096zm-.335.343c.024 0 .048.009.066.026l.041.04.463.482c.013.014.03.024.048.031l.155.156-.166.135-.678-.71a.091.091 0 0 1-.016-.103.091.091 0 0 1 .087-.057zm.64.408.037.037h-.002z" aria-label="werebuzy" class="cls-2" font-family="Garamond-Bold,Garamond" font-size="205.91" font-weight="700"/>
</symbol>
<symbol id="yippeebeans" viewBox="0 0 26.987 5.292"><path d="M3.754 1.028c-1.22-.02-2.738.577-3.353 1.427-.334.461-.007 1.14.437 1.434.95.63 2.796.857 3.818.077.806-.616 1.056-2.095.32-2.609-.313-.218-.745-.321-1.222-.329zm.366.773h.002c.04 0 .087.01.154.04.178.077.056.154.056.154l-.816.684c-.135.13-.127.102-.127.477v.665a.179.179 0 0 1-.357.006c-.001-.012-.004-.024-.004-.036v-.647c0-.32.013-.335-.078-.422l-.046-.043-.53-.405h-.001l-.007-.006-.007-.005s-.122-.077.056-.154.227-.046.323.02c.097.067.39.302.39.302s.04.025.079.025c.038 0 .07-.025.07-.025s.269-.223.472-.388a8.003 8.003 0 0 1 .207-.164c.06-.041.1-.075.165-.078zm21.911 1.94c.442 0 .691-.213.691-.564 0-.346-.164-.467-.53-.572l-.213-.056c-.23-.069-.322-.15-.322-.339 0-.197.145-.306.434-.306.21 0 .406.053.519.109v-.205a1.109 1.109 0 0 0-.53-.117c-.447 0-.664.221-.664.54 0 .33.185.463.483.54l.2.06c.27.072.37.157.37.366 0 .198-.128.33-.466.33a1.37 1.37 0 0 1-.603-.128V3.6c.153.085.37.141.631.141zm-2.608-.028h.253V2.077c.177-.1.402-.169.607-.169.322 0 .426.105.426.37v1.435h.253v-1.49c0-.38-.193-.532-.57-.532-.25 0-.515.084-.712.213h-.016v-.177h-.24zm-1.378.032c.277 0 .454-.1.554-.21h.016l.024.178h.205V2.267c0-.403-.233-.576-.659-.576-.22 0-.41.036-.582.104v.182c.136-.032.293-.069.49-.069.354 0 .498.093.498.42v.233l-.562.064c-.382.044-.595.226-.595.572 0 .355.253.548.61.548zm.064-.201c-.253 0-.414-.125-.414-.355 0-.241.129-.354.402-.382l.494-.057v.637c-.092.084-.277.157-.482.157zm-1.72.201c.313 0 .535-.089.655-.17v-.192a1.28 1.28 0 0 1-.615.145c-.466 0-.707-.222-.715-.766h1.39v-.145c0-.604-.249-.926-.787-.926-.462 0-.864.31-.864 1.003v.048c0 .632.313 1.003.936 1.003zm-.08-1.849c.357 0 .53.21.53.665h-1.121c.032-.492.305-.665.59-.665zm-2.17 1.861c.622 0 .972-.366.972-1.035v-.048c0-.758-.374-.983-.776-.983-.28 0-.474.08-.63.177h-.02V.828h-.25V3.64c.17.077.462.117.704.117zm.016-.217a1.3 1.3 0 0 1-.47-.077V2.057c.116-.06.313-.149.542-.149.406 0 .619.182.619.782v.072c0 .58-.306.778-.691.778zm-1.897.205c.313 0 .534-.089.655-.17v-.192a1.28 1.28 0 0 1-.615.145c-.466 0-.707-.222-.715-.766h1.39v-.145c0-.604-.249-.926-.787-.926-.463 0-.865.31-.865 1.003v.048c0 .632.314 1.003.937 1.003zm-.08-1.849c.357 0 .53.21.53.665h-1.121c.032-.492.305-.665.59-.665zm-1.905 1.85c.313 0 .534-.09.655-.17v-.193a1.28 1.28 0 0 1-.615.145c-.466 0-.707-.222-.716-.766h1.39v-.145c0-.604-.248-.926-.787-.926-.462 0-.864.31-.864 1.003v.048c0 .632.314 1.003.937 1.003zm-.08-1.85c.357 0 .53.21.53.665h-1.122c.033-.492.306-.665.591-.665zm-2.87 2.413h.249v-.7c.117.072.297.136.53.136.547 0 .897-.306.897-1.023v-.044c0-.75-.366-.987-.804-.987-.27 0-.478.092-.615.197h-.016v-.161h-.241zm.755-.77a.946.946 0 0 1-.506-.144V2.073a1.01 1.01 0 0 1 .559-.165c.381 0 .602.173.602.782v.072c0 .556-.24.778-.655.778zm-2.897.77h.25v-.7c.116.072.296.136.53.136.546 0 .896-.306.896-1.023v-.044c0-.75-.366-.987-.804-.987-.27 0-.478.092-.615.197h-.016v-.161h-.241Zm.755-.77a.946.946 0 0 1-.506-.144V2.073a1.01 1.01 0 0 1 .559-.165c.381 0 .602.173.602.782v.072c0 .556-.24.778-.655.778zm-1.603.174h.253V1.727h-.253Zm-.004-2.4h.261v-.279h-.261ZM6.577 4.317c.317 0 .462-.157.583-.483l.787-2.111h-.249l-.579 1.563h-.008l-.623-1.563h-.265l.764 1.893-.064.19c-.077.209-.19.298-.386.298a.928.928 0 0 1-.201-.029v.19a.593.593 0 0 0 .24.052z"/>
</symbol></svg>
